<svg width="160" height="167" viewBox="0 0 160 167" fill="none" xmlns="http://www.w3.org/2000/svg">
<g clip-path="url(#clip0)">
<path fill-rule="evenodd" clip-rule="evenodd" d="M17.8734 1.14391C28.8495 4.75447 37.8036 15.7306 44.7359 34.3611L149.731 51.5473C158.974 54.1469 162.296 61.9457 156.374 76.388C150.309 91.5523 148.142 109.605 130.234 121.592C123.59 125.058 110.015 126.503 99.9052 126.503H83.1522C70.0098 126.503 61.2 126.358 54.701 121.592C49.7907 117.837 46.469 113.071 43.8694 108.016H33.9042C27.4052 108.016 26.5387 97.4737 33.9042 97.4737H78.0974C84.3076 97.4737 84.452 87.7974 78.0974 87.7974H24.228C16.718 87.7974 17.729 77.9766 24.228 77.9766H58.1672C64.8106 77.6878 64.5218 68.4448 58.1672 68.878H18.0178C9.49689 68.878 9.35246 58.1908 18.0178 58.1908H34.6264C32.0268 46.2037 33.9042 19.9188 20.6174 15.875C15.1294 14.864 10.6523 24.3959 2.70904 16.3083C-4.94533 6.77639 4.73095 -3.47761 17.8734 1.14391Z" fill="url(#paint0_linear)"/>
<path d="M58.1673 166.981C66.5423 166.981 73.3316 160.192 73.3316 151.817C73.3316 143.442 66.5423 136.653 58.1673 136.653C49.7922 136.653 43.0029 143.442 43.0029 151.817C43.0029 160.192 49.7922 166.981 58.1673 166.981Z" fill="#464646"/>
<path d="M102.072 166.981C110.447 166.981 117.236 160.192 117.236 151.817C117.236 143.442 110.447 136.653 102.072 136.653C93.697 136.653 86.9077 143.442 86.9077 151.817C86.9077 160.192 93.697 166.981 102.072 166.981Z" fill="#464646"/>
</g>
<defs>
<linearGradient id="paint0_linear" x1="79.6861" y1="126.491" x2="79.6861" y2="0.000949964" gradientUnits="userSpaceOnUse">
<stop stop-color="#78621E"/>
<stop offset="0.133333" stop-color="#745B0F"/>
<stop offset="0.239216" stop-color="#CC9933"/>
<stop offset="0.541176" stop-color="#FFE387"/>
<stop offset="0.819608" stop-color="#CC9933"/>
<stop offset="1" stop-color="#705400"/>
</linearGradient>
<clipPath id="clip0">
<rect width="159.339" height="166.981" fill="white"/>
</clipPath>
</defs>
</svg>
