<?xml version="1.0" encoding="UTF-8"?>
<!DOCTYPE svg PUBLIC "-//W3C//DTD SVG 1.1//EN" "http://www.w3.org/Graphics/SVG/1.1/DTD/svg11.dtd">
<!-- Creator: CorelDRAW X8 -->
<svg xmlns="http://www.w3.org/2000/svg" xml:space="preserve" width="2008px" height="2008px" version="1.1" style="shape-rendering:geometricPrecision; text-rendering:geometricPrecision; image-rendering:optimizeQuality; fill-rule:evenodd; clip-rule:evenodd"
viewBox="0 0 2008 2008"
 xmlns:xlink="http://www.w3.org/1999/xlink">
 <defs>
  <style type="text/css">
   <![CDATA[
    .fil0 {fill:black}
    .fil2 {fill:white}
    .fil1 {fill:url(#id0)}
   ]]>
  </style>
  <linearGradient id="id0" gradientUnits="userSpaceOnUse" x1="1004" y1="1303.92" x2="1004" y2="428.086">
   <stop offset="0" style="stop-opacity:1; stop-color:#78621E"/>
   <stop offset="0.133333" style="stop-opacity:1; stop-color:#745B0F"/>
   <stop offset="0.239216" style="stop-opacity:1; stop-color:#CC9933"/>
   <stop offset="0.541176" style="stop-opacity:1; stop-color:#FFE387"/>
   <stop offset="0.819608" style="stop-opacity:1; stop-color:#CC9933"/>
   <stop offset="1" style="stop-opacity:1; stop-color:#705400"/>
  </linearGradient>
 </defs>
 <g id="Capa_x0020_1">
  <metadata id="CorelCorpID_0Corel-Layer"/>
  <circle class="fil0" cx="1004" cy="1004" r="886"/>
  <g id="_2635391826784">
   <path class="fil1" d="M576 436c76,25 138,101 186,230l727 119c64,18 87,72 46,172 -42,105 -57,230 -181,313 -46,24 -140,34 -210,34l-116 0c-91,0 -152,-1 -197,-34 -34,-26 -57,-59 -75,-94l-69 0c-45,0 -51,-73 0,-73l306 0c43,0 44,-67 0,-67l-373 0c-52,0 -45,-68 0,-68l235 0c46,-2 44,-66 0,-63l-278 0c-59,0 -60,-74 0,-74l115 0c-18,-83 -5,-265 -97,-293 -38,-7 -69,59 -124,3 -53,-66 14,-137 105,-105z"/>
   <g>
    <circle class="fil2" cx="855" cy="1475" r="105"/>
    <circle class="fil2" cx="1159" cy="1475" r="105"/>
   </g>
  </g>
 </g>
</svg>
