<svg width="308" height="311" viewBox="0 0 308 311" fill="none" xmlns="http://www.w3.org/2000/svg">
<g clip-path="url(#clip0)">
<path fill-rule="evenodd" clip-rule="evenodd" d="M127.392 39.2L165.167 81.0902L202.941 123.173H127.392H51.6509L89.6181 81.0902L127.392 39.2Z" fill="#FF922D"/>
<path fill-rule="evenodd" clip-rule="evenodd" d="M127.392 206.953L165.167 165.063L202.941 122.98H127.392H51.6509L89.6181 165.063L127.392 206.953Z" fill="#F1812D"/>
<path fill-rule="evenodd" clip-rule="evenodd" d="M202.75 0L174.997 30.7451L147.437 61.4902H202.75H258.062L230.31 30.7451L202.75 0Z" fill="#F94757"/>
<path fill-rule="evenodd" clip-rule="evenodd" d="M202.75 123.365L174.997 92.4274L147.437 61.4902H202.75H258.062L230.31 92.4274L202.75 123.365Z" fill="#E14459"/>
<path fill-rule="evenodd" clip-rule="evenodd" d="M209.109 231.933L183.091 202.918L157.266 173.902H209.109H261.146L235.127 202.918L209.109 231.933Z" fill="#13C9D7"/>
<path fill-rule="evenodd" clip-rule="evenodd" d="M209.108 116.063L183.09 145.079L156.879 174.094H209.108H261.145L235.127 145.079L209.108 116.063Z" fill="#10B2B5"/>
<path fill-rule="evenodd" clip-rule="evenodd" d="M286.393 184.663L275.986 173.133L265.579 161.412H286.393H307.208L296.8 173.133L286.393 184.663Z" fill="#13C9D7"/>
<path fill-rule="evenodd" clip-rule="evenodd" d="M286.393 138.353L275.986 149.882L265.579 161.604H286.393H307.208L296.8 149.882L286.393 138.353Z" fill="#10B2B5"/>
<path fill-rule="evenodd" clip-rule="evenodd" d="M54.7344 185.624L41.4362 170.828L27.9453 155.839H54.7344H81.3308L68.0326 170.828L54.7344 185.624Z" fill="#13C9D7"/>
<path fill-rule="evenodd" clip-rule="evenodd" d="M54.7344 126.247L41.4362 141.235L27.9453 156.031H54.7344H81.3308L68.0326 141.235L54.7344 126.247Z" fill="#10B2B5"/>
<path fill-rule="evenodd" clip-rule="evenodd" d="M157.073 173.902L137.222 196L117.372 218.098H157.073H196.775L176.924 196L157.073 173.902Z" fill="#125572"/>
<path fill-rule="evenodd" clip-rule="evenodd" d="M157.073 262.294L137.222 240.196L117.372 218.098H157.073H196.775L176.924 240.196L157.073 262.294Z" fill="#105D91"/>
<path fill-rule="evenodd" clip-rule="evenodd" d="M18.6945 87.2392L9.25091 97.8078L0 108.377H18.6945H37.3891L27.9454 97.8078L18.6945 87.2392Z" fill="#125572"/>
<path fill-rule="evenodd" clip-rule="evenodd" d="M18.6945 129.322L9.25091 118.753L0 108.377H18.6945H37.3891L27.9454 118.753L18.6945 129.322Z" fill="#105D91"/>
<path fill-rule="evenodd" clip-rule="evenodd" d="M209.109 116.063L222.985 131.435L236.861 147V116.063V85.1255L222.985 100.69L209.109 116.063Z" fill="#125572"/>
<path fill-rule="evenodd" clip-rule="evenodd" d="M264.614 116.063L250.738 131.435L236.861 147V116.063V85.1255L250.738 100.69L264.614 116.063Z" fill="#105D91"/>
<path fill-rule="evenodd" clip-rule="evenodd" d="M156.301 3.4588L151.29 9.03136L146.279 14.6039H156.301H166.516L161.505 9.03136L156.301 3.4588Z" fill="#F94757"/>
<path fill-rule="evenodd" clip-rule="evenodd" d="M156.301 25.9411L151.29 20.3686L146.279 14.6039H156.301H166.516L161.505 20.3686L156.301 25.9411Z" fill="#E14459"/>
<path fill-rule="evenodd" clip-rule="evenodd" d="M109.084 19.4078L101.182 28.0549L93.0874 36.8941H109.084H124.887L116.986 28.0549L109.084 19.4078Z" fill="#FF922D"/>
<path fill-rule="evenodd" clip-rule="evenodd" d="M109.083 54.3804L101.182 45.7333L93.2803 36.8941H109.083H124.887L116.985 45.7333L109.083 54.3804Z" fill="#FF922D"/>
<path fill-rule="evenodd" clip-rule="evenodd" d="M76.8983 38.8157L64.1783 52.8431L51.2656 66.8706H76.8983H102.339L89.6183 52.8431L76.8983 38.8157Z" fill="#F94757"/>
<path fill-rule="evenodd" clip-rule="evenodd" d="M76.8985 95.3099L64.1785 81.0902L51.4585 66.8705H76.8985H102.339L89.6185 81.0902L76.8985 95.3099Z" fill="#F94757"/>
<path fill-rule="evenodd" clip-rule="evenodd" d="M106.771 194.079L102.146 199.075L97.52 204.263H106.771H116.022L111.397 199.075L106.771 194.079Z" fill="#FF922D"/>
<path fill-rule="evenodd" clip-rule="evenodd" d="M106.771 214.639L102.146 209.451L97.52 204.263H106.771H116.022L111.397 209.451L106.771 214.639Z" fill="#FF922D"/>
<path fill-rule="evenodd" clip-rule="evenodd" d="M159.578 60.9137L189.066 93.5803L218.36 126.055L189.066 158.529L159.578 191.196L130.091 158.529L100.604 126.055L130.091 93.5803L159.578 60.9137Z" fill="white"/>
<path fill-rule="evenodd" clip-rule="evenodd" d="M136.836 104.726L149.171 108.569L145.123 117.6L136.836 104.726Z" fill="#063AAA" stroke="#063AAA" stroke-width="2.3622"/>
<path fill-rule="evenodd" clip-rule="evenodd" d="M149.171 108.569L145.124 117.6L150.328 125.479L153.604 122.02V109.914L149.171 108.569Z" fill="#00694A" stroke="#00694A" stroke-width="2.3622"/>
<path fill-rule="evenodd" clip-rule="evenodd" d="M136.837 104.726L145.124 117.6L139.535 130.667L136.644 127.208L136.837 104.726Z" fill="#369573" stroke="#1EA69D" stroke-width="2.3622"/>
<path fill-rule="evenodd" clip-rule="evenodd" d="M145.124 117.6L150.328 125.479L139.535 130.667L145.124 117.6Z" fill="#62A323" stroke="#62A323" stroke-width="2.3622"/>
<path fill-rule="evenodd" clip-rule="evenodd" d="M153.604 122.02L150.328 125.479L153.604 129.13V122.02Z" fill="#769E07" stroke="#769E07" stroke-width="2.3622"/>
<path fill-rule="evenodd" clip-rule="evenodd" d="M150.328 125.479L139.535 130.667L142.812 134.51L150.328 125.479Z" fill="#87AA12" stroke="#87AA12" stroke-width="2.3622"/>
<path fill-rule="evenodd" clip-rule="evenodd" d="M136.644 127.208L139.535 130.667L136.644 137.777V127.208Z" fill="#6AAF04" stroke="#6AAF04" stroke-width="2.3622"/>
<path fill-rule="evenodd" clip-rule="evenodd" d="M139.535 130.667L142.811 134.51L136.644 141.235V137.777L139.535 130.667Z" fill="#B1C94D" stroke="#B1C94D" stroke-width="2.3622"/>
<path fill-rule="evenodd" clip-rule="evenodd" d="M150.328 125.479L153.026 128.553L146.859 139.89L142.812 134.51L150.328 125.479Z" fill="#97AA2C" stroke="#97AA2C" stroke-width="2.3622"/>
<path fill-rule="evenodd" clip-rule="evenodd" d="M153.025 128.553L153.603 129.13V141.428L151.676 145.463L146.858 139.89L153.025 128.553Z" fill="#7A9707" stroke="#7A9707" stroke-width="2.3622"/>
<path fill-rule="evenodd" clip-rule="evenodd" d="M142.811 134.51L146.859 139.89L136.644 157.761V141.235L142.811 134.51Z" fill="#769D26" stroke="#769D26" stroke-width="2.3622"/>
<path fill-rule="evenodd" clip-rule="evenodd" d="M146.858 139.89L151.676 145.463L147.243 155.071L140.69 150.651L146.858 139.89Z" fill="#50830D" stroke="#50830D" stroke-width="2.3622"/>
<path fill-rule="evenodd" clip-rule="evenodd" d="M151.677 145.463L153.604 141.428V148.153L151.677 145.463Z" fill="#486A1D" stroke="#486A1D" stroke-width="2.3622"/>
<path fill-rule="evenodd" clip-rule="evenodd" d="M151.677 145.463L153.604 148.153V158.722L147.244 155.071L151.677 145.463Z" fill="#708A63" stroke="#708A63" stroke-width="2.3622"/>
<path fill-rule="evenodd" clip-rule="evenodd" d="M147.244 155.071L140.691 150.651L136.644 157.761V160.643L143.39 162.949L147.244 155.071Z" fill="#376B2B" stroke="#376B2B" stroke-width="2.3622"/>
<path fill-rule="evenodd" clip-rule="evenodd" d="M143.39 162.949L147.244 155.071L153.604 158.722V166.216L143.39 162.949Z" fill="#748D78" stroke="#748D78" stroke-width="2.3622"/>
<path fill-rule="evenodd" clip-rule="evenodd" d="M132.019 106.455L139.342 103.957C141.077 104.726 143.197 105.494 146.088 106.071C146.088 107.608 146.28 109.145 147.051 111.067L132.019 106.455Z" fill="#0059C7" stroke="#0059C7" stroke-width="2.3622"/>
<path fill-rule="evenodd" clip-rule="evenodd" d="M146.086 106.071C146.086 107.992 146.279 109.529 147.05 111.067L152.254 112.796V111.451L157.843 109.722L158.035 107.608C153.025 107.608 149.941 107.224 146.086 106.071Z" fill="#0E64BB" stroke="#0E64BB" stroke-width="2.3622"/>
<path fill-rule="evenodd" clip-rule="evenodd" d="M158.037 107.608L157.844 109.722L163.241 107.608H158.037Z" fill="#0B83B8" stroke="#0B83B8" stroke-width="2.3622"/>
<path fill-rule="evenodd" clip-rule="evenodd" d="M146.087 106.071C146.087 104.341 146.279 102.804 146.665 101.459L139.341 103.957C141.461 104.918 143.774 105.686 146.087 106.071Z" fill="#0058BC" stroke="#0058BC" stroke-width="2.3622"/>
<path fill-rule="evenodd" clip-rule="evenodd" d="M146.665 101.459C146.279 102.996 146.086 104.533 146.086 106.071C149.941 107.224 153.988 107.608 158.035 107.608C158.614 105.494 159.192 103.188 159.963 101.075L153.795 99.1529L146.665 101.459Z" fill="#1056B5" stroke="#1056B5" stroke-width="2.3622"/>
<path fill-rule="evenodd" clip-rule="evenodd" d="M163.24 107.608C161.506 107.608 159.771 107.608 158.037 107.608C158.615 105.494 159.193 103.188 159.964 101.075C162.662 101.843 165.746 102.228 169.022 102.804C168.251 103.957 167.48 105.11 167.095 106.263L163.24 107.608Z" fill="#3E63A7" stroke="#3E63A7" stroke-width="2.3622"/>
<path fill-rule="evenodd" clip-rule="evenodd" d="M169.022 102.804C171.528 102.996 173.84 102.996 176.153 103.188L167.095 106.263C167.673 105.11 168.252 103.765 169.022 102.804Z" fill="#3F3A62" stroke="#3F3A62" stroke-width="2.3622"/>
<path fill-rule="evenodd" clip-rule="evenodd" d="M159.963 101.075L153.796 99.1529L162.469 95.8863C161.505 97.4235 160.734 98.9608 159.963 101.075Z" fill="#00007A" stroke="#00007A" stroke-width="2.3622"/>
<path fill-rule="evenodd" clip-rule="evenodd" d="M169.021 102.804C165.937 102.42 162.854 101.843 159.963 101.075C160.734 99.1529 161.505 97.4235 162.468 95.8863C165.359 94.5412 166.13 94.5412 173.068 96.6549L169.021 102.804Z" fill="#000034" stroke="#000034" stroke-width="2.3622"/>
<path fill-rule="evenodd" clip-rule="evenodd" d="M176.152 103.188L169.021 102.804C170.178 100.498 171.527 98.5765 173.069 96.6549L185.018 100.306L176.152 103.188Z" fill="black" stroke="black" stroke-width="2.3622"/>
<path fill-rule="evenodd" clip-rule="evenodd" d="M180.392 101.459C183.861 107.416 183.861 113.181 180.007 119.33C178.272 119.906 175.767 120.29 172.105 119.906V103.381L180.392 101.459Z" fill="#400022" stroke="#400022" stroke-width="2.3622"/>
<path fill-rule="evenodd" clip-rule="evenodd" d="M180.393 101.459L188.295 107.608C186.753 109.914 184.633 111.643 182.513 113.181C183.477 109.337 182.706 105.302 180.393 101.459Z" fill="black" stroke="black" stroke-width="2.3622"/>
<path fill-rule="evenodd" clip-rule="evenodd" d="M188.294 107.608C186.559 110.106 184.632 111.835 182.512 113.18C182.126 115.102 181.355 117.024 180.006 119.33C182.705 118.369 185.596 116.831 188.294 114.333V107.608Z" fill="#402943" stroke="#402943" stroke-width="2.3622"/>
<path fill-rule="evenodd" clip-rule="evenodd" d="M188.294 114.333C185.403 116.832 182.705 118.369 180.007 119.33C178.658 121.828 176.345 123.365 173.839 124.71L176.923 125.671C181.163 124.71 185.018 122.788 188.294 120.098V114.333Z" fill="#9B6B79" stroke="#9B6B79" stroke-width="2.3622"/>
<path fill-rule="evenodd" clip-rule="evenodd" d="M179.428 119.522C177.116 120.098 174.61 120.482 171.527 120.098V124.518L173.261 124.902C176.152 123.557 178.079 121.635 179.428 119.522Z" fill="#8A264A" stroke="#8A264A" stroke-width="2.3622"/>
<path fill-rule="evenodd" clip-rule="evenodd" d="M188.295 120.098V127.977L187.331 128.745L177.117 125.671C181.357 124.71 185.211 122.788 188.295 120.098Z" fill="#8A4D79" stroke="#8A4D79" stroke-width="2.3622"/>
<path fill-rule="evenodd" clip-rule="evenodd" d="M152.254 145.463L156.301 144.31C157.072 142.388 157.457 140.082 157.65 137.392L152.254 138.161V145.463Z" fill="#E47F25" stroke="#E47F25" stroke-width="2.3622"/>
<path fill-rule="evenodd" clip-rule="evenodd" d="M157.65 137.392L152.254 138.161V134.51L157.457 132.973C157.843 134.126 157.843 135.663 157.65 137.392Z" fill="#DE5600" stroke="#DE5600" stroke-width="2.3622"/>
<path fill-rule="evenodd" clip-rule="evenodd" d="M156.302 144.31C157.266 142.004 157.651 139.698 157.651 137.392C160.35 137.008 162.855 137.008 165.36 137.392C164.975 138.545 164.397 140.082 163.433 141.812L156.302 144.31Z" fill="#EEB147" stroke="#EEB147" stroke-width="2.3622"/>
<path fill-rule="evenodd" clip-rule="evenodd" d="M165.36 137.392C162.855 137.008 160.157 137.008 157.651 137.392C157.844 135.855 157.844 134.318 157.458 132.973C161.506 131.628 164.782 130.282 166.131 128.361C166.71 131.435 166.324 134.318 165.36 137.392Z" fill="#EA7100" stroke="#EA7100" stroke-width="2.3622"/>
<path fill-rule="evenodd" clip-rule="evenodd" d="M163.433 141.812C164.204 140.467 164.975 138.929 165.36 137.392L173.262 138.353L163.433 141.812Z" fill="#F0A860" stroke="#F0A860" stroke-width="2.3622"/>
<path fill-rule="evenodd" clip-rule="evenodd" d="M170.178 137.969L165.359 137.392C165.938 135.855 166.13 134.51 166.323 132.973C168.058 133.165 169.985 133.741 171.912 134.318C171.527 135.471 170.949 136.816 170.178 137.969Z" fill="#ED8836" stroke="#ED8836" stroke-width="2.3622"/>
<path fill-rule="evenodd" clip-rule="evenodd" d="M171.912 134.318C170.178 133.741 168.443 133.357 166.323 132.973C166.516 131.435 166.516 129.898 166.13 128.361L172.105 123.749C172.876 127.208 173.069 130.859 171.912 134.318Z" fill="#E15500" stroke="#E15500" stroke-width="2.3622"/>
<path fill-rule="evenodd" clip-rule="evenodd" d="M172.106 123.749C172.877 127.208 172.877 130.859 171.913 134.318L178.851 136.624C182.32 134.702 185.597 130.667 188.295 127.977L172.106 123.749Z" fill="#BA4557" stroke="#BA4557" stroke-width="2.3622"/>
<path fill-rule="evenodd" clip-rule="evenodd" d="M173.262 138.353L170.179 137.969C170.95 136.816 171.528 135.663 171.913 134.318L178.851 136.624L173.262 138.353Z" fill="#E98436" stroke="#E98436" stroke-width="2.3622"/>
<path fill-rule="evenodd" clip-rule="evenodd" d="M14.0691 299.573V310.91H9.25098V274.208H30.8364L37.0037 280.165V293.616L30.8364 299.573H14.0691ZM14.0691 294.577H28.9092L31.9928 291.502V282.086L28.9092 279.012H14.0691V294.577ZM69.7674 306.106V310.91H42.0146V306.106H53.3855V288.235H42.0146V283.239H58.2037V306.106H69.7674ZM58.2037 274.208V279.012H53.3855V274.208H58.2037ZM102.532 310.91H97.7128V305.145L90.1965 299.573H87.1128L79.5965 305.145V310.91H74.7783V302.647L82.2947 297.075L74.7783 291.502V283.239H79.5965V289.004L87.1128 294.577H90.1965L97.7128 289.004V283.239H102.532V291.502L95.0147 297.075L102.532 302.647V310.91ZM129.321 310.91H113.517L107.542 304.953V289.196L113.517 283.239H129.321L135.295 289.196V299.573H112.553V302.839L115.637 306.106H127.201L131.055 302.263L134.524 305.722L129.321 310.91ZM112.553 294.577H130.477V291.31L127.201 288.235H115.637L112.553 291.31V294.577ZM168.059 306.106V310.91H140.306V306.106H151.87V279.012H140.306V274.208H156.688V306.106H168.059Z" fill="black"/>
<path fill-rule="evenodd" clip-rule="evenodd" d="M199.665 293.424H217.589V282.086L214.312 279.012H202.749L199.665 282.086V293.424ZM217.589 298.42H199.665V310.91H194.654V280.165L200.629 274.208H216.432L222.407 280.165V310.91H217.589V298.42Z" fill="#13C9D7"/>
<path fill-rule="evenodd" clip-rule="evenodd" d="M236.283 290.157H251.123L254.207 286.89V282.086L251.123 279.012H236.283V290.157ZM253.629 310.91L236.283 297.267V310.91H231.465V274.208H253.051L259.025 280.165V289.004L253.051 294.961H241.102L260.953 310.91H253.629Z" fill="#FF922D"/>
<path fill-rule="evenodd" clip-rule="evenodd" d="M268.276 281.126L275.215 274.208H291.018L297.956 281.126L294.487 284.584L288.898 279.012H285.622V310.91H280.611V279.012H277.335L271.745 284.584L268.276 281.126Z" fill="#F94757"/>
</g>
<defs>
<clipPath id="clip0">
<rect width="308" height="310.91" fill="white"/>
</clipPath>
</defs>
</svg>
